<svg xmlns="http://www.w3.org/2000/svg" xmlns:xlink="http://www.w3.org/1999/xlink" width="80" height="80" fill="none" xmlns:v="https://vecta.io/nano"><use xlink:href="#h" fill="url(#A)"/><use xlink:href="#h" fill="url(#B)"/><path d="M61.414 60.66c-4.256 0-4.437 3.259-9.508 3.259s-7.786-2.085-12.495-4.89c-3.929-2.341-8.543-1.856-10.966-2.345l3.255 1.288s1.939 4.311 7.05 6.88c7.408 3.728 16.184-.564 19.998-.303 4.748.327 10.624 1.364 11.715 1.281-.54-.43-.989-5.17-9.047-5.17z" fill="url(#C)"/><path d="M61.414 60.66c-4.256 0-4.437 3.259-9.508 3.259s-7.786-2.085-12.495-4.89c-3.929-2.341-8.543-1.856-10.966-2.345l3.255 2.735s1.939 2.861 7.05 5.434c7.408 3.728 16.184-.564 19.998-.303 4.748.327 10.624 1.364 11.715 1.281-.54-.43-.989-5.17-9.047-5.17z" fill="url(#D)"/><path d="M61.414 60.66c-4.256 0-4.437 3.259-9.508 3.259s-7.786-2.085-12.495-4.89c-3.929-2.341-8.543-1.856-10.966-.895l3.255 1.288s1.159 1.691 4.008 3.637c.343-.256.508.694.422-.134-.749-7.184 6.73 1.88 13.429 1.698 7.523-.193 11.857-3.964 11.857-3.964z" fill="url(#E)"/><path d="M17.99 50.611l-7.897 11.4c-.686.989-2.739 6.116-4.027 9.406-.307.788.532 1.367 1.159.8l7.566-6.955 8.389-12.105c-2.396-.047-4.429-.666-5.19-2.546z" fill="url(#F)"/><path d="M6.136 72.166c.225.311.697.402 1.088.051l7.566-6.955 8.389-12.105c-.737-.016-1.427-.094-2.069-.236l-7.274 10.482c-.489.485-3.456 4.65-7.7 8.764z" fill="url(#G)"/><path d="M18.695 51.778c-.548-.378-.437-.5-.705-1.166l-7.897 11.4c-.686.989-2.739 6.116-4.027 9.406-.307.788 4.441-7.826 5.044-8.701l7.586-10.939z" fill="url(#H)"/><use xlink:href="#i" fill="url(#I)"/><use xlink:href="#i" fill="url(#J)"/><path d="M29.784 63.804c-1.076-2.022.52-3.562 2.684-3.811-1.257-1.746-2.112-4.011-2.112-4.011l-3.078-.059-1.58 1.974-.197.563s5.521 7.668 4.283 5.343z" fill="url(#K)"/><path d="M30.355 55.982c.587 1.214 1.174 2.423 1.943 3.523.761 1.052 1.639 2.222 2.975 2.333 1.364.276 2.597 1.048 3.507 2.069.418.532.93 1.04 1.024 1.785.043.78-.666 1.277-1.292 1.43.623-.209 1.222-.757 1.115-1.415-.102-.615-.626-1.131-1.052-1.608-.918-.942-2.084-1.671-3.373-1.907-.674-.067-1.379-.449-1.856-.93a8.09 8.09 0 0 1-1.281-1.608c-.358-.579-.678-1.178-.965-1.789l-.745-1.884z" fill="#804b24"/><use xlink:href="#j" fill="url(#L)"/><use xlink:href="#j" fill="url(#M)"/><path d="M28.716 61.732c-.91-1.541-1.446-2.987-1.446-2.987l-.887-2.754-1.966.169-1.608 4.11-.918 1.962.611 1.387.548-.15c.414 1.43 1.426 2.656 2.636 3.558-1.273-2.317.721-4.973 3.03-5.296z" fill="url(#N)"/><path d="M31.687 66.973c-.02-1.052-.556-1.99-1.253-2.711-.757-.737-1.34-1.643-1.848-2.553-1.017-1.832-1.848-3.755-2.518-5.73l2.818 5.556c.536.883 1.044 1.781 1.777 2.51.721.792 1.182 1.88 1.025 2.928z" fill="#804b24"/><use xlink:href="#k" fill="url(#O)"/><use xlink:href="#k" fill="url(#P)"/><path d="M23.483 62.733l-.363-1.537-1.82-1.17-4.752 2.589c0 1.718 1.328 3.57 2.845 4.752-.426-2.38 2.487-3.96 4.09-4.634z" fill="url(#Q)"/><path d="M23.904 67.43c.193-.701.177-1.419.087-2.108-.114-.658-.414-1.371-.544-2.073l-.843-4.252 1.17 4.169c.162.713.43 1.344.532 2.116.067.741-.043 1.509-.402 2.148z" fill="#804b24"/><path d="M12.847 58.339c.075 3.184 3.018 4.496 5.371 4.496s7.329-2.821 9.047-4.09 7.432-2.522 12.141.284 7.424 4.89 12.495 4.89 5.253-3.259 9.508-3.259c8.965 0 8.511 5.887 9.237 5.162s3.349-6.79 3.349-12.586c0-3.834-.914-5.867-1.529-7.779-.272-.843-1.099-1.34-1.978-1.233-6.305.761-15.644-6.986-22.027-10.096-6.88-3.349-12.495-6.88-16.661-6.88s-17.657 7.515-19.379 9.237-2.443 3.712-2.443 6.159-1.541 8.24-1.541 13.221c0 3.984.985 5.473 2.396 4.618.355-.217.737-.579 1.135-1.088.126-.146.883-.82.879-1.056 0-1.903 1.478-4.358 4.031-6.561.367-.315.666-1.202.918-1.892 0 0 .725-3.44 1.45-5.012s1.813-2.534 3.503-2.896c4.815-1.032 8.452-7.306 10.868-5.856s-.122 7.01-4.953 8.701-7.365 3.614-10.624 6.029-5.194 5.312-5.194 7.487z" fill="url(#R)"/><path d="M70.489 44.224c-6.305.761-15.644-6.986-22.027-10.096-5.162-2.514-9.611-5.127-13.268-6.277l-1.58 8.271c.489.292.753.69.835 1.147.071.26.087.548.075.851 0 .032-.004.063-.004.094a4.44 4.44 0 0 1-.177.966c5.347-5.828 8.712-6.336 11.802-5.075 5.265 2.148 11.14 10.959 18.292 10.959 7.121 0 9.004 4.209 9.02 4.236-.303-1.564-.682-2.892-.985-3.838-.138-.422-.41-.756-.76-.973-.343-.209-.761-.303-1.19-.26-.012 0-.02-.004-.032-.004z" fill="url(#S)"/><path d="M48.466 34.128c-3.897-1.895-7.385-3.85-10.439-5.19l-3.29 7.314c1.182-1.017 3.602-1.687 8.567-.402 10.143 2.624 15.845 16.661 21.007 16.452 4.654-.189 4.468-3.381 9.363-1.754a33.5 33.5 0 0 0-1.202-5.091 1.77 1.77 0 0 0-.76-.973 1.89 1.89 0 0 0-1.218-.26c-6.309.761-15.648-6.986-22.027-10.096z" fill="url(#T)"/><path d="M33.614 36.122c2.416 1.45-.122 7.01-4.953 8.701-3.645 1.277-5.986 2.687-8.314 4.339 3.129-1.868 6.695-2.112 9.406-3.436 6.486-3.164 6.549-10.293 6.549-10.293l-2.687.69z" fill="url(#U)"/><path d="M31.801 27.248c-4.165 0-17.657 7.515-19.379 9.237s-2.443 3.712-2.443 6.159-1.541 8.24-1.541 13.221c0 .599.024 1.135.067 1.624 1.025-5.233 1.962-17.787 4.803-20.211 3.499-2.987 15.636-10.052 20.975-9.237.528.079.934.039 1.285-.059-1.359-.461-2.62-.733-3.767-.733z" fill="url(#V)"/><path d="M72.471 45.458c-.272-.843-1.099-1.34-1.978-1.233-5.375.646-12.948-5.276-19.021-8.539-.02 3.822.319 7.731-.256 11.187-2.522 8.196-8.61 10.356-15.998 10.659 1.403.233 2.837.694 4.193 1.501 4.709 2.806 7.424 4.89 12.495 4.89s5.253-3.259 9.508-3.259c8.965 0 8.512 5.887 9.237 5.162S74 59.037 74 53.24c0-3.838-.914-5.871-1.529-7.783z" fill="url(#W)"/><path d="M34.26 36.753c.055.091.091.189.122.288l.355-.788c-.185.162-.347.327-.477.5z" fill="url(#X)"/><path d="M17.797 49.886s.725-3.44 1.45-5.012 1.813-2.534 3.503-2.896c.824-.177 1.608-.512 2.36-.93 3.369-3.361 7.621-11.203 6.301-9.796-8.385 8.921-8.354 6.927-11.885 10.458s-2.49 7.471-4.346 9.327c-1.616 1.616-4.709 5.465-4.342 9.438.355-.213.737-.571 1.139-1.08.122-.146.883-.816.875-1.056 0 0-.138-1.214.977-3.034.008-.012.02-.024.028-.035.69-1.158 1.714-2.356 3.026-3.487.122-.169.24-.351.363-.528.205-.406.39-.922.552-1.367z" fill="url(#Y)"/><path d="M70.651 65.822c.28-.28.843-1.363 1.43-2.912-5.793-7.286-12.775-5.402-14.864-3.606-2.175 1.872-5.856 4.043-10.383 2.175s-6.096-8.149-12.314-8.149-10.687 3.893-13.583 5.343c-2.534 1.269-5.028 1.186-8.007-1.363l-.083 1.032c.079 3.365 3.204 4.496 5.371 4.496 2.352 0 7.329-2.821 9.047-4.09s7.432-2.522 12.141.284 7.424 4.89 12.495 4.89 5.253-3.259 9.508-3.259c8.969-.004 8.515 5.883 9.24 5.158z" fill="url(#Z)"/><path d="M70.651 65.822c.24-.24.69-1.092 1.182-2.301-.623-1.147-1.781-2.1-3.684-2.707-10.234-3.259-10.234 2.175-17.929 2.396s-10.143-7.92-14.489-7.92c-9.587 0-14.442 7.046-21.168 6.399 1.092.804 2.502 1.139 3.657 1.139 2.352 0 7.329-2.821 9.047-4.09s7.432-2.522 12.141.284 7.424 4.89 12.495 4.89 5.253-3.259 9.508-3.259c8.969.008 8.515 5.895 9.24 5.17z" fill="url(#a)"/><path d="M16.878 51.778z" fill="url(#b)"/><path d="M36.691 41.939c2.266-.422 3.428-1.419 5.264-1.757s10.108-1.119 10.809 2.853-5.083 6.242-8.468 7.92-12.078.812-13.189-2.341 2.021-6.013 5.584-6.675z" fill="url(#c)"/><path d="M21.796 39.87c-1.107 1.226-2.908 1.032-3.803 2.022s-3.948 10.706-6.076 8.72-.118-8.906 1.076-11.337 11.38-8.949 13.386-7.617-2.845 6.289-4.583 8.212z" fill="url(#d)"/><path d="M52.619 9.544c-.296-.504-.8-1.198-1.537-1.71s-1.541-.725-2.108-.82c-.422-.071-.871.138-1.143.532L17.986 50.612c.028.071.071.126.102.193l.544-.441-.099.118c3.026-2.242 5.548-4.059 10.127-5.662.146-.051.28-.126.422-.181l23.442-33.829c.28-.394.315-.895.095-1.265z" fill="url(#e)"/><path d="M21.398 47.873L48.265 9.055c.749-1.237 1.076-1.982.713-2.041-.422-.071-.871.138-1.143.532L17.99 50.612l.079.217c1.194-.887 2.242-1.919 3.33-2.955z" fill="url(#f)"/><path d="M52.528 10.809c.032-.047.051-.103.079-.154.083-.158.142-.323.154-.489.016-.221-.032-.437-.142-.623-.004-.008-.008-.016-.012-.02a5.82 5.82 0 0 0-.701-.95L26.013 45.883l2.652-1.056c.146-.051.28-.126.422-.181l23.442-33.837z" fill="url(#g)"/><path d="M61.414 60.66c-1.336 0-2.64.434-3.724 1.202-1.084.745-2.195 1.553-3.515 1.876-2.628.583-5.395.209-7.885-.753-2.49-1.001-4.705-2.518-6.994-3.846-2.266-1.336-4.981-1.801-7.586-1.556-1.3.118-2.613.394-3.779.961l-3.393 2.073c-1.17.638-2.372 1.225-3.621 1.702-1.23.481-2.624.828-3.96.508-1.316-.256-2.62-.902-3.42-2.025-.796-1.111-.997-2.617-.54-3.889.91-2.565 2.936-4.492 5.044-6.064-2.073 1.616-4.047 3.598-4.874 6.116a4.13 4.13 0 0 0 .54 3.712c.765 1.06 2.021 1.675 3.294 1.911 1.296.296 2.593-.039 3.818-.524 1.229-.477 2.416-1.072 3.574-1.714 1.182-.626 2.218-1.383 3.389-2.104 1.226-.603 2.557-.898 3.897-1.025 2.672-.233 5.45.264 7.771 1.655 2.29 1.352 4.484 2.877 6.931 3.881 2.435.969 5.182 1.348 7.751.804 1.296-.288 2.404-1.052 3.515-1.781 1.103-.741 2.431-1.151 3.767-1.119zM34.272 37.155c.106.315.162.646.146.981-.213 2.037-1.592 3.807-3.172 5.052-1.564 1.356-3.692 1.75-5.564 2.695-1.903.871-3.677 2.002-5.331 3.275 1.734-1.155 3.538-2.203 5.43-3.054l2.9-1.131c1.001-.343 1.951-.847 2.786-1.501 1.616-1.328 2.999-3.156 3.188-5.324.016-.418-.043-.847-.217-1.237l-.165.244z" fill="#804b24"/><defs><linearGradient id="A" x1="36.744" y1="44.648" x2="15.607" y2="22.519" xlink:href="#l"><stop offset=".001" stop-color="#ffcb4b"/><stop offset="1" stop-color="#ffd748"/></linearGradient><linearGradient id="B" x1="30.982" y1="65.87" x2="33.563" y2="27.702" xlink:href="#l"><stop stop-color="#ffbc47" stop-opacity="0"/><stop offset="1" stop-color="#c86f34"/></linearGradient><linearGradient id="C" x1="49.639" y1="65.85" x2="49.878" y2="71.564" xlink:href="#l"><stop offset=".001" stop-color="#ffcb4b"/><stop offset="1" stop-color="#ffd748"/></linearGradient><linearGradient id="D" x1="52.493" y1="79.897" x2="48.501" y2="55.465" xlink:href="#l"><stop stop-color="#ffbc47" stop-opacity="0"/><stop offset="1" stop-color="#c86f34"/></linearGradient><linearGradient id="E" x1="46.298" y1="80.028" x2="44.845" y2="58.153" xlink:href="#l"><stop stop-color="#ffbc47" stop-opacity="0"/><stop offset="1" stop-color="#c86f34"/></linearGradient><linearGradient id="F" x1="2.956" y1="52.125" x2="15.011" y2="62.987" xlink:href="#l"><stop offset=".001" stop-color="#0097d4"/><stop offset=".237" stop-color="#0294d6"/><stop offset=".444" stop-color="#0989db"/><stop offset=".641" stop-color="#1477e4"/><stop offset=".83" stop-color="#245ef0"/><stop offset="1" stop-color="#3640ff"/></linearGradient><linearGradient id="G" x1="5.576" y1="53.674" x2="14.33" y2="62.341" xlink:href="#l"><stop offset=".001" stop-color="#0097d4"/><stop offset=".237" stop-color="#0294d6"/><stop offset=".444" stop-color="#0989db"/><stop offset=".641" stop-color="#1477e4"/><stop offset=".83" stop-color="#245ef0"/><stop offset="1" stop-color="#3640ff"/></linearGradient><linearGradient id="H" x1="9.117" y1="59.092" x2="14.718" y2="62.84" xlink:href="#l"><stop stop-color="#0097d4" stop-opacity="0"/><stop offset=".334" stop-color="#029ad7" stop-opacity=".334"/><stop offset=".629" stop-color="#08a3e2" stop-opacity=".629"/><stop offset=".907" stop-color="#13b2f4" stop-opacity=".907"/><stop offset="1" stop-color="#17b9fc"/></linearGradient><linearGradient id="I" x1="32.253" y1="67.548" x2="32.494" y2="73.343" xlink:href="#l"><stop offset=".001" stop-color="#ffcb4b"/><stop offset="1" stop-color="#ffd748"/></linearGradient><linearGradient id="J" x1="32.743" y1="86.267" x2="31.777" y2="53.427" xlink:href="#l"><stop stop-color="#ffbc47" stop-opacity="0"/><stop offset="1" stop-color="#c86f34"/></linearGradient><linearGradient id="K" x1="30.683" y1="69.628" x2="29.143" y2="60.21" xlink:href="#l"><stop stop-color="#ffbc47" stop-opacity="0"/><stop offset="1" stop-color="#c86f34"/></linearGradient><linearGradient id="L" x1="26.477" y1="67.789" x2="26.719" y2="73.584" xlink:href="#l"><stop offset=".001" stop-color="#ffcb4b"/><stop offset="1" stop-color="#ffd748"/></linearGradient><linearGradient id="M" x1="29.155" y1="79.792" x2="23.964" y2="52.627" xlink:href="#l"><stop stop-color="#ffbc47" stop-opacity="0"/><stop offset="1" stop-color="#c86f34"/></linearGradient><linearGradient id="N" x1="25.75" y1="69.335" x2="25.298" y2="61.91" xlink:href="#l"><stop stop-color="#ffbc47" stop-opacity="0"/><stop offset="1" stop-color="#c86f34"/></linearGradient><linearGradient id="O" x1="20.524" y1="68.037" x2="20.766" y2="73.832" xlink:href="#l"><stop offset=".001" stop-color="#ffcb4b"/><stop offset="1" stop-color="#ffd748"/></linearGradient><linearGradient id="P" x1="22.652" y1="73.822" x2="17.219" y2="50.942" xlink:href="#l"><stop stop-color="#ffbc47" stop-opacity="0"/><stop offset="1" stop-color="#c86f34"/></linearGradient><linearGradient id="Q" x1="20.793" y1="75.831" x2="20.009" y2="62.611" xlink:href="#l"><stop stop-color="#ffbc47" stop-opacity="0"/><stop offset="1" stop-color="#c86f34"/></linearGradient><linearGradient id="R" x1="76.658" y1="78.103" x2="10.736" y2="31.257" xlink:href="#l"><stop offset=".001" stop-color="#ffcb4b"/><stop offset="1" stop-color="#ffd748"/></linearGradient><radialGradient id="S" cx="0" cy="0" r="1" gradientTransform="translate(70.0448 9.65873) scale(101.45)" xlink:href="#l"><stop stop-color="#ffbc47" stop-opacity="0"/><stop offset="1" stop-color="#ff8900"/></radialGradient><linearGradient id="T" x1="38.856" y1="34.735" x2="63.245" y2="46.326" xlink:href="#l"><stop stop-color="#ffbb47" stop-opacity=".969"/><stop offset=".003" stop-color="#ffba47"/><stop offset="1" stop-color="#ffd748" stop-opacity="0"/></linearGradient><linearGradient id="U" x1="28.133" y1="39.918" x2="29.401" y2="55.493" xlink:href="#l"><stop stop-color="#ffbb47" stop-opacity=".969"/><stop offset=".003" stop-color="#ffba47"/><stop offset="1" stop-color="#ffd748" stop-opacity="0"/></linearGradient><linearGradient id="V" x1="24.821" y1="46.1" x2="9.336" y2="27.356" xlink:href="#l"><stop stop-color="#ffbb47" stop-opacity=".969"/><stop offset=".003" stop-color="#ffba47"/><stop offset="1" stop-color="#ffd748" stop-opacity="0"/></linearGradient><radialGradient id="W" cx="0" cy="0" r="1" gradientTransform="translate(59.3261 51.1399) rotate(-72.5489) scale(31.3323 22.2742)" xlink:href="#l"><stop stop-color="#ffbb47" stop-opacity=".969"/><stop offset=".003" stop-color="#ffba47"/><stop offset="1" stop-color="#ffd748" stop-opacity="0"/></radialGradient><linearGradient id="X" x1="50.508" y1="54.036" x2="37.469" y2="39.82" xlink:href="#l"><stop stop-color="#ffbb47" stop-opacity=".969"/><stop offset=".003" stop-color="#ffba47"/><stop offset="1" stop-color="#ffd748" stop-opacity="0"/></linearGradient><linearGradient id="Y" x1="13.483" y1="3.217" x2="26.402" y2="74.089" xlink:href="#l"><stop offset=".312" stop-color="#ffbc47" stop-opacity="0"/><stop offset="1" stop-color="#ff8900"/></linearGradient><radialGradient id="Z" cx="0" cy="0" r="1" gradientTransform="translate(48.4749 27.4331) scale(111.475)" xlink:href="#l"><stop stop-color="#ffbc47" stop-opacity="0"/><stop offset="1" stop-color="#ff8900"/></radialGradient><linearGradient id="a" x1="55.182" y1="30.091" x2="37.796" y2="77.268" xlink:href="#l"><stop offset=".312" stop-color="#ffbc47" stop-opacity="0"/><stop offset="1" stop-color="#ff8900"/></linearGradient><linearGradient id="b" x1="16.877" y1="51.783" x2="16.874" y2="51.781" xlink:href="#l"><stop offset=".001" stop-color="#ffcb4b"/><stop offset="1" stop-color="#ffd748"/></linearGradient><radialGradient id="c" cx="0" cy="0" r="1" gradientTransform="translate(40.5378 44.777) rotate(169.5) scale(7.95986 4.04358)" xlink:href="#l"><stop stop-color="#fbe07a"/><stop offset=".265" stop-color="#fcdf73" stop-opacity=".735"/><stop offset=".655" stop-color="#fddb5f" stop-opacity=".345"/><stop offset="1" stop-color="#ffd748" stop-opacity="0"/></radialGradient><radialGradient id="d" cx="0" cy="0" r="1" gradientTransform="translate(17.8548 38.1867) rotate(-47.8592) scale(7.98236 4.08614)" xlink:href="#l"><stop stop-color="#fbe07a"/><stop offset=".265" stop-color="#fcdf73" stop-opacity=".735"/><stop offset=".655" stop-color="#fddb5f" stop-opacity=".345"/><stop offset="1" stop-color="#ffd748" stop-opacity="0"/></radialGradient><linearGradient id="e" x1="23.418" y1="21.851" x2="43.641" y2="35.373" xlink:href="#l"><stop offset=".001" stop-color="#0097d4"/><stop offset=".237" stop-color="#0294d6"/><stop offset=".444" stop-color="#0989db"/><stop offset=".641" stop-color="#1477e4"/><stop offset=".83" stop-color="#245ef0"/><stop offset="1" stop-color="#3640ff"/></linearGradient><radialGradient id="f" cx="0" cy="0" r="1" gradientTransform="translate(39.1027 21.0694) rotate(-55.4788) scale(27.8797 0.597149)" xlink:href="#l"><stop stop-color="#fff" stop-opacity=".5"/><stop offset="1" stop-color="#fff" stop-opacity="0"/></radialGradient><linearGradient id="g" x1="21.495" y1="15.324" x2="44.435" y2="30.959" xlink:href="#l"><stop offset=".001" stop-color="#0097d4"/><stop offset=".237" stop-color="#0294d6"/><stop offset=".444" stop-color="#0989db"/><stop offset=".641" stop-color="#1477e4"/><stop offset=".83" stop-color="#245ef0"/><stop offset="1" stop-color="#3640ff"/></linearGradient><path id="h" d="M35.592 42.36c-2.128 3.148-5.146 4.827-6.742 3.747s-1.162-4.504.965-7.652 5.146-4.827 6.742-3.747 1.162 4.504-.965 7.652z"/><path id="i" d="M28.424 62.926c3.141 3.503 5.915 4.406 8.511 4.406s3.141-1.269 2.597-2.203-2.112-2.806-4.587-3.168-4.587-5.978-4.587-5.978l-3.077-.059-2.896 3.621 4.039 3.381z"/><path id="j" d="M23.049 63.47c.906 3.141 4.65 5.371 7.243 5.131 1.624-.15 2.053-2.656.122-4.587s-3.145-5.264-3.145-5.264l-1.746-5.418-2.715 6.943-1.75 3.743 1.99-.548z"/><path id="k" d="M16.547 62.614c0 2.806 3.543 5.986 5.659 5.986s2.175-2.837 1.813-3.925-.895-3.48-.895-3.48l-1.82-1.17-4.756 2.589z"/><linearGradient id="l" gradientUnits="userSpaceOnUse"/></defs></svg>